<svg width="1436" height="292" viewBox="0 0 1436 292" fill="none" xmlns="http://www.w3.org/2000/svg">
<path d="M2 292C481.321 292 960.641 292 1439.96 292" stroke="url(#paint0_linear_485_2163)" stroke-miterlimit="10"/>
<path d="M2 283.837C244.716 283.898 487.312 282.439 729.968 280.787C834.959 280.069 940.669 280.305 1045.65 281.819C1177.06 283.711 1308.54 281.928 1439.92 283.837" stroke="url(#paint1_linear_485_2163)" stroke-miterlimit="10"/>
<path d="M2 275.796C70.7725 275.796 139.565 276.087 208.328 275.944C269.78 275.818 331.093 273.081 392.526 272.609C506.964 271.732 621.382 272.752 735.81 271.715C837.376 270.794 939.99 268.353 1041.49 272.077C1100.64 274.271 1159.19 275.27 1218.4 276.175C1292.29 277.305 1366.1 274.238 1439.96 275.796" stroke="url(#paint2_linear_485_2163)" stroke-miterlimit="10"/>
<path d="M2 267.864C69.7839 267.864 137.748 268.489 205.512 267.814C269.191 267.178 332.501 262.719 396.131 261.572C510.789 259.504 624.547 265.412 739.085 264.359C839.872 263.448 939.231 256.054 1040.13 262.669C1099.1 266.536 1156.25 269.564 1215.66 270.447C1290.55 271.545 1365.08 266.207 1439.96 267.864" stroke="url(#paint3_linear_485_2163)" stroke-miterlimit="10"/>
<path d="M2 260.086C68.5557 260.086 135.601 261.084 202.106 259.708C268.612 258.331 334.169 251.995 400.475 249.949C460.75 248.089 520.175 248.589 580.13 252.637C633.864 256.268 686.06 258.89 740.233 258.495C787.716 258.144 832.203 254.184 879.097 250.492C932.761 246.263 988.012 248.238 1041.18 253.624C1099.69 259.559 1154.89 265.237 1214.64 265.884C1290.01 266.707 1364.54 258.665 1439.96 260.086" stroke="url(#paint4_linear_485_2163)" stroke-miterlimit="10"/>
<path d="M2 252.417C67.1177 252.417 133.224 253.761 198.232 251.611C267.693 249.318 335.977 241.013 405.288 237.898C464.799 235.188 524.708 237.045 583.286 243.416C635.582 249.022 686.14 254.03 739.594 253.8C789.094 253.586 833.881 246.702 881.933 241.134C936.475 234.815 990.449 237.212 1044.16 244.875C1101.73 253.103 1154.88 261.968 1215.04 262.203C1290.54 262.505 1364.33 251.496 1439.96 252.423" stroke="url(#paint5_linear_485_2163)" stroke-miterlimit="10"/>
<path d="M2 244.869C65.5799 244.836 130.718 246.515 194.078 243.58C266.815 240.239 337.874 229.932 410.341 225.626C471.155 222.017 527.355 225.374 586.012 234.441C636.231 242.209 684.872 249.987 737.547 250.003C789.633 250.003 835.968 239.663 885.398 232.116C941.708 223.52 993.634 226.021 1048.66 236.405C1104.66 246.97 1156.07 259.444 1216.57 259.17C1291.96 258.797 1364.36 244.617 1439.96 244.869" stroke="url(#paint6_linear_485_2163)" stroke-miterlimit="10"/>
<path d="M2 237.442C63.9721 237.393 128.131 239.258 189.734 235.648C265.806 231.194 339.522 218.896 415.324 213.345C476.987 208.83 530.511 213.657 588.219 225.736C635.831 235.703 682.595 246.504 734.412 246.844C789.174 247.206 838.544 233.004 889.192 223.443C947.679 212.401 997.619 214.749 1054.14 228.205C1107.96 241.019 1158.15 257.469 1218.9 256.548C1294.03 255.407 1364.52 237.969 1439.94 237.442" stroke="url(#paint7_linear_485_2163)" stroke-miterlimit="10"/>
<path d="M2 230.136C62.3844 230.07 125.545 232.056 185.48 227.848C264.807 222.281 341.189 208.052 420.147 201.261C483.058 195.847 533.546 202.045 590.036 217.306C634.713 229.373 679.589 243.312 730.687 244.047C788.126 244.864 841.46 226.417 893.276 215.078C920.418 209.171 949.027 203.636 978.616 204.909C1007.57 206.159 1035 212.857 1060.32 220.268C1111.37 235.171 1161.1 255.687 1221.84 254.118C1296.63 252.182 1364.77 231.496 1439.97 230.152" stroke="url(#paint8_linear_485_2163)" stroke-miterlimit="10"/>
<path d="M2 222.956C60.9165 222.873 123.048 224.909 181.346 220.213C263.699 213.598 342.467 197.531 424.351 189.566C488.7 183.302 536.273 190.757 591.235 209.16C632.906 223.115 675.905 240.169 726.543 241.326C786.458 242.692 844.376 219.906 897.181 207.01C924.842 200.252 955.349 193.126 986.245 194.695C1015.2 196.165 1042.34 204.196 1066.55 212.523C1114.83 229.132 1164.05 253.789 1224.95 251.589C1299.42 248.891 1364.93 225.062 1439.93 222.956" stroke="url(#paint9_linear_485_2163)" stroke-miterlimit="10"/>
<path d="M2 215.901C59.5085 215.803 120.722 217.838 177.531 212.797C262.571 205.243 343.456 187.482 427.876 178.453C460.021 175.019 490.488 173.033 521.973 179.056C547.627 183.966 570.195 192.583 591.964 201.294C630.908 216.867 672.02 236.839 722.539 238.403C784.65 240.328 847.222 213.411 900.886 199.198C929.026 191.744 961.41 183.11 993.484 184.936C1022.57 186.582 1049.35 195.836 1072.52 204.975C1118.24 222.989 1166.87 251.502 1228.09 248.743C1302.3 245.391 1365.09 218.611 1439.96 215.874" stroke="url(#paint10_linear_485_2163)" stroke-miterlimit="10"/>
<path d="M2 208.962C58.3002 208.858 118.685 210.882 174.186 205.61C261.382 197.327 343.805 178.041 430.353 168.161C462.607 164.481 492.984 162.199 524.31 169.034C549.724 174.612 571.383 184.184 592.093 193.751C628.751 210.662 668.146 233.141 718.914 235.034C751.358 236.246 783.981 226.948 812.002 219.077C843.088 210.344 872.975 200.394 904.051 191.65C932.611 183.619 966.563 173.767 999.716 175.824C1029.01 177.64 1055.37 187.837 1077.72 197.656C1121.33 216.855 1169.05 248.594 1230.86 245.379C1304.93 241.539 1365.1 212.094 1439.96 208.94" stroke="url(#paint11_linear_485_2163)" stroke-miterlimit="10"/>
<path d="M2 202.15C57.2916 202.045 117.037 204.075 171.47 198.705C260.204 189.956 343.586 169.353 431.581 158.859C463.686 155.019 494.292 152.567 525.298 159.89C550.682 165.886 571.692 176.281 591.654 186.505C626.784 204.492 664.691 228.836 716.078 230.937C749.41 232.286 782.983 222.215 811.442 213.888C843.567 204.481 874.353 193.773 906.478 184.355C935.437 175.858 970.387 165.233 1004.43 167.4C1034.04 169.287 1059.94 180.12 1081.68 190.504C1123.95 210.685 1170.2 244.7 1233 241.271C1307.08 237.229 1364.95 205.419 1439.96 202.172" stroke="url(#paint12_linear_485_2163)" stroke-miterlimit="10"/>
<path d="M1 195.457C55.5127 195.37 114.889 197.438 168.522 192.111C258.006 183.225 341.617 161.541 430.291 150.762C461.956 146.923 493.132 144.421 523.699 151.794C549.293 157.965 570.013 168.919 589.606 179.577C624.177 198.414 660.964 223.735 713.43 225.775C747.502 227.103 781.164 216.927 810.023 208.222C842.827 198.348 874.182 187.092 906.976 177.207C936.304 168.365 971.404 157.57 1006.14 159.72C1036.1 161.574 1061.57 172.605 1083.04 183.433C1124.98 204.58 1169.02 239.456 1233.29 236.06C1307.56 232.138 1363.68 198.37 1439 195.468" stroke="url(#paint13_linear_485_2163)" stroke-miterlimit="10"/>
<path d="M2 188.875C56.313 188.689 115.499 191.014 168.903 185.584C257.777 176.527 340.32 154.196 428.296 143.165C459.871 139.21 491.027 136.841 521.573 144.125C547.537 150.329 568.667 161.415 588.549 172.205C623.759 191.316 660.936 216.96 714.091 219.352C748.402 220.893 781.864 210.844 810.853 202.002C843.707 191.974 875.002 180.499 907.846 170.466C937.314 161.459 972.235 150.812 1007.23 153.116C1037.39 155.101 1062.71 166.155 1084.22 177.103C1126.33 198.546 1169.53 232.961 1234.31 229.763C1308.79 226.099 1364.33 191.409 1439.96 188.875" stroke="url(#paint14_linear_485_2163)" stroke-miterlimit="10"/>
<path d="M2 182.44C56.5427 182.1 115.549 185.035 169.143 179.226C256.439 169.763 337.125 147.065 423.492 135.644C455.447 131.415 485.784 129.215 516.77 136.549C543.203 142.797 565.082 153.768 585.693 164.464C622.071 183.367 660.816 209.269 713.971 212.533C748.072 214.628 781.655 204.552 810.394 195.715C842.848 185.737 873.674 174.25 906.118 164.261C935.527 155.205 970.447 144.64 1005.4 147.377C1035.46 149.731 1061.15 160.943 1082.96 171.771C1125.29 192.78 1169.74 226.548 1233.74 223.443C1308.4 219.817 1364.12 184.93 1439.93 182.44" stroke="url(#paint15_linear_485_2163)" stroke-miterlimit="10"/>
<path d="M2 176.116C56.8522 175.71 115.699 179.462 169.622 173.313C255.141 163.56 333.72 140.565 418.27 128.881C450.494 124.416 480.122 122.425 511.458 129.666C538.3 135.869 561.057 146.555 582.437 157.169C620.034 175.82 660.566 201.628 713.671 205.682C747.463 208.266 780.786 198.397 809.266 189.599C841.17 179.725 871.348 168.31 903.232 158.442C932.551 149.369 967.142 139.106 1001.93 142.233C1032.03 144.942 1058.17 156.204 1080.47 166.917C1123.36 187.487 1169.28 220.41 1232.79 217.349C1307.77 213.74 1363.8 178.628 1439.94 176.149" stroke="url(#paint16_linear_485_2163)" stroke-miterlimit="10"/>
<path d="M2 169.912C57.2317 169.522 116.048 174.267 170.351 167.805C253.913 157.871 330.205 134.641 412.768 122.754C445.122 118.097 474.191 116.347 505.786 123.379C533.107 129.457 556.714 139.835 578.922 150.258C618.087 168.573 660.037 194.009 713.292 198.809C746.684 201.815 779.418 192.374 807.618 183.636C838.824 173.96 868.232 162.644 899.418 152.956C928.626 143.878 962.548 134.125 997.129 137.597C1027.37 140.642 1054.05 151.859 1077.02 162.424C1120.76 182.539 1168.32 214.453 1231.49 211.409C1306.93 207.772 1363.39 172.424 1439.99 169.928" stroke="url(#paint17_linear_485_2163)" stroke-miterlimit="10"/>
<path d="M2 163.828C57.6811 163.521 116.478 169.407 171.27 162.665C252.735 152.644 326.6 129.205 407.036 117.252C439.37 112.436 468.039 110.938 499.794 117.663C527.605 123.555 552.04 133.571 575.158 143.675C616.099 161.574 659.328 186.401 712.782 191.892C777.291 198.523 842.479 164.009 894.754 147.74C923.853 138.678 956.856 129.6 991.138 133.401C1021.61 136.785 1048.86 147.893 1072.61 158.299C1117.47 177.942 1166.8 208.715 1229.81 205.654C1305.81 201.968 1362.81 166.363 1439.96 163.828" stroke="url(#paint18_linear_485_2163)" stroke-miterlimit="10"/>
<path d="M2 157.871C58.1704 157.701 116.977 164.848 172.339 157.871C251.616 147.844 322.935 124.295 401.134 112.304C433.359 107.367 461.748 106.138 493.593 112.474C521.913 118.118 547.197 127.69 571.223 137.476C613.942 154.865 658.459 178.864 712.183 185.035C775.713 192.319 838.095 158.803 889.402 142.797C917.772 133.96 950.845 125.052 984.188 129.605C1015.14 133.828 1042.42 144.07 1067.52 154.492C1113.66 173.636 1164.89 203.164 1227.9 200.07C1304.55 196.313 1362.16 160.438 1439.96 157.833" stroke="url(#paint19_linear_485_2163)" stroke-miterlimit="10"/>
<path d="M2 152.029C58.6996 152.029 117.566 160.548 173.547 153.313C250.568 143.357 319.27 119.709 395.163 107.784C526.976 87.0548 595.738 163.582 711.524 178.228C773.936 186.132 833.162 153.823 883.54 138.14C911.78 129.364 943.575 121.371 976.499 126.182C1007.84 130.762 1035.75 140.779 1061.87 151.004C1109.45 169.654 1162.66 197.838 1225.81 194.695C1303.17 190.855 1361.45 154.701 1439.97 152.029" stroke="url(#paint20_linear_485_2163)" stroke-miterlimit="10"/>
<path d="M2 146.314C59.2488 146.544 118.215 156.462 174.865 149.013C249.589 139.188 315.665 115.486 389.191 103.665C518.278 82.9192 596.897 155.776 710.815 171.47C772.148 179.928 827.819 149.051 877.279 133.67C905.399 124.926 935.806 117.987 968.26 123.017C1000.03 127.954 1028.64 137.718 1055.81 147.729C1104.92 165.831 1160.16 192.66 1223.57 189.445C1301.69 185.491 1360.7 149.073 1439.98 146.314" stroke="url(#paint21_linear_485_2163)" stroke-miterlimit="10"/>
<path d="M2 140.718C59.818 141.184 118.904 152.55 176.263 144.914C248.7 135.271 312.07 111.541 383.319 99.8794C509.67 79.194 598.015 148.069 710.086 164.81C770.321 173.806 822.207 144.448 870.798 129.369C898.819 120.675 927.718 114.849 959.672 120.044C991.877 125.304 1021.24 134.854 1049.48 144.618C1100.16 162.171 1157.44 187.602 1221.17 184.316C1300.06 180.24 1359.86 143.549 1439.92 140.696" stroke="url(#paint22_linear_485_2163)" stroke-miterlimit="10"/>
<path d="M2 135.244C60.3772 135.951 119.633 148.771 177.751 140.976C247.951 131.552 308.705 107.811 377.657 96.3467C501.322 75.782 599.113 140.521 709.347 158.266C768.493 167.788 816.485 139.994 864.248 125.205C892.148 116.566 919.639 111.887 951.065 117.268C983.718 122.863 1013.85 132.172 1043.14 141.694C1095.42 158.699 1154.72 182.725 1218.84 179.357C1298.56 175.166 1359.1 138.217 1439.96 135.244" stroke="url(#paint23_linear_485_2163)" stroke-miterlimit="10"/>
<path d="M1 129.896C59.9165 130.839 119.372 145.079 178.159 137.153C246.202 127.976 304.39 104.241 371.145 93.0012C492.363 72.5955 599.222 133.121 707.668 151.859C765.736 161.898 809.823 135.667 856.807 121.141C884.587 112.557 910.73 109.024 941.557 114.559C974.66 120.494 1005.55 129.589 1035.89 138.848C1089.71 155.271 1150.98 177.942 1215.55 174.503C1296.06 170.197 1357.35 132.946 1439 129.907" stroke="url(#paint24_linear_485_2163)" stroke-miterlimit="10"/>
<path d="M2 124.663C61.5056 125.831 121.101 141.437 180.607 133.401C246.603 124.487 302.334 100.769 367.013 89.7703C485.904 69.5512 601.31 125.875 707.939 145.606C765.038 156.171 805.181 131.393 851.516 117.159C879.206 108.657 903.981 106.188 934.288 111.882C967.821 118.157 999.456 127.071 1030.79 136.062C1086.08 151.92 1149.24 173.258 1214.26 169.731C1295.54 165.315 1357.54 127.795 1439.94 124.663" stroke="url(#paint25_linear_485_2163)" stroke-miterlimit="10"/>
<path d="M2 119.556C62.0649 120.917 121.83 137.806 182.005 129.688C246.114 121.043 299.538 97.3239 362.279 86.5835C423.143 76.1613 487.891 87.9274 544.741 100.5C599.563 112.628 651.679 128.536 707.32 139.534C763.7 150.68 799.659 127.071 845.644 113.204C906.707 94.8006 969.249 118.141 1025.14 133.275C1081.77 148.59 1146.71 168.656 1212.15 165.052C1294.15 160.543 1356.83 122.76 1439.96 119.551" stroke="url(#paint26_linear_485_2163)" stroke-miterlimit="10"/>
<path d="M2 114.564C62.6241 116.083 122.399 134.141 183.343 125.963C245.744 117.581 297.042 93.8785 358.095 83.374C418.4 72.9846 484.855 84.2681 541.975 95.7819C597.905 107.06 651.14 121.953 706.771 133.67C762.402 145.386 794.896 122.935 840.292 109.265C899.967 91.3003 965.115 116.396 1020.04 130.466C1077.85 145.277 1144.44 164.124 1210.25 160.471C1292.88 155.88 1356.18 117.844 1439.92 114.564" stroke="url(#paint27_linear_485_2163)" stroke-miterlimit="10"/>
<path d="M2 109.699C63.1933 111.344 122.919 130.412 184.571 122.183C245.485 114.06 294.895 90.3682 354.331 80.0666C414.176 69.7266 482.149 80.5493 539.528 91.1087C596.447 101.591 650.75 115.59 706.292 128.025C732.494 133.889 751.697 134.131 777.031 126.566C797.622 120.417 815.037 111.487 835.598 105.294C863.029 97.0219 884.878 97.2523 913.608 103.401C948.129 110.801 981.761 119.309 1015.63 127.576C1074.42 141.881 1142.45 159.632 1208.56 155.946C1291.76 151.305 1355.59 113.017 1439.93 109.699" stroke="url(#paint28_linear_485_2163)" stroke-miterlimit="10"/>
<path d="M2 104.948C63.7624 106.594 123.308 126.572 185.68 118.316C245.385 110.412 293.107 86.6327 351.345 76.5945C410.88 66.3313 480.102 76.7042 537.711 86.4682C595.319 96.2322 650.63 109.507 705.992 122.672C731.576 128.755 750.279 129.616 775.394 122.09C795.305 116.122 811.922 107.313 831.784 101.301C859.065 93.0397 880.574 93.9173 908.804 100.269C943.495 108.075 977.647 116.567 1012.16 124.603C1071.68 138.459 1141.05 155.222 1207.25 151.525C1290.91 146.857 1355.17 108.338 1439.92 104.998" stroke="url(#paint29_linear_485_2163)" stroke-miterlimit="10"/>
<path d="M1 100.33C63.3416 101.932 122.548 122.601 185.618 114.323C244.435 106.594 290.669 82.634 348.098 72.892C407.554 62.7934 477.524 72.6945 535.492 81.7619C593.929 90.895 649.72 103.616 704.852 117.505C729.917 123.813 748.411 125.14 773.335 117.614C792.708 111.772 808.655 103.018 827.968 97.121C855.119 88.8325 876.609 90.1764 904.409 96.7699C939.15 104.998 973.701 113.511 1008.74 121.377C1068.66 134.833 1139.18 150.73 1205.33 147.06C1289.32 142.397 1353.89 103.66 1439 100.33" stroke="url(#paint30_linear_485_2163)" stroke-miterlimit="10"/>
<path d="M2 95.8256C64.9108 97.2793 123.608 118.447 187.377 110.148C245.585 102.573 290.821 78.5083 347.56 68.8814C406.826 58.8322 477.716 68.5194 535.833 77.0217C594.87 85.6612 650.91 98.0362 705.782 112.677C730.437 119.259 749.031 120.85 773.826 113.275C792.799 107.477 808.247 98.7164 827.19 92.8635C854.242 84.5038 876.031 86.0836 903.502 92.9787C938.173 101.679 972.984 110.252 1008.41 117.987C1068.51 131.102 1139.85 146.286 1205.73 142.671C1289.92 138.058 1354.65 99.1114 1439.96 95.8256" stroke="url(#paint31_linear_485_2163)" stroke-miterlimit="10"/>
<path d="M2 91.4378C65.2304 92.7433 123.518 114.142 187.677 105.766C245.685 98.1958 290.651 74.1533 347.211 64.5813C406.417 54.565 477.626 64.4497 535.763 72.771C595.009 81.2514 650.87 93.5332 705.812 108.24C730.377 114.822 749.231 116.193 773.856 108.667C792.699 102.908 808.047 94.2244 826.891 88.4482C853.852 80.1872 876.041 81.7232 903.252 88.8158C937.773 97.8118 972.624 106.451 1008.2 114.109C1068.01 126.983 1140.28 141.997 1205.65 138.245C1289.72 133.428 1354.87 95.1404 1439.96 91.4542" stroke="url(#paint32_linear_485_2163)" stroke-miterlimit="10"/>
<path d="M2 87.1205C65.3702 88.3602 123.488 109.901 187.797 101.426C245.715 93.7908 290.91 69.9512 347.51 60.4396C406.716 50.4891 477.766 60.8071 535.813 69.1833C594.87 77.7076 650.491 89.9674 705.812 103.977C758.178 117.235 784.131 96.8461 827.26 84.131C854.222 76.1827 876.55 77.6308 903.512 84.7508C937.883 93.8291 972.674 102.447 1008.24 110.017C1067.7 122.666 1140.91 137.751 1205.81 133.681C1289.52 128.426 1355.47 91.6953 1439.99 87.2028" stroke="url(#paint33_linear_485_2163)" stroke-miterlimit="10"/>
<path d="M2 82.8697C65.5599 84.0655 123.538 105.766 188.046 97.2195C245.964 89.5399 291.34 65.9527 347.97 56.5288C407.176 46.6551 478.015 57.3681 535.973 65.7717C594.8 74.3015 650.211 86.5065 705.852 99.8086C757.779 112.227 784.66 92.2003 827.819 80.0612C854.781 72.4584 877.309 73.8627 904.031 80.9937C938.243 90.1214 972.934 98.6731 1008.49 106.111C1067.71 118.503 1141.64 133.429 1206.01 129.084C1289.31 123.467 1356.06 88.3331 1439.96 83.1275" stroke="url(#paint34_linear_485_2163)" stroke-miterlimit="10"/>
<path d="M2 78.6953C65.7796 79.8582 123.668 101.734 188.416 93.1493C246.264 85.4807 291.909 62.1623 348.579 52.8371C407.785 43.128 478.395 54.1097 536.243 62.5188C594.79 71.0212 650.081 83.1329 705.922 95.7C757.479 107.291 785.28 87.7078 828.548 76.1336C855.58 68.9093 878.278 70.3136 904.8 77.4391C938.822 86.5833 973.443 95.0362 1008.94 102.299C1068.01 114.394 1142.39 128.952 1206.32 124.383C1289.21 118.464 1356.73 84.9815 1439.99 79.1341" stroke="url(#paint35_linear_485_2163)" stroke-miterlimit="10"/>
<path d="M2 74.592C66.0492 75.7439 123.827 97.7897 188.905 89.1996C246.703 81.5749 292.628 58.5198 349.348 49.3811C408.534 39.842 478.784 51.0706 536.612 59.4523C594.84 67.8998 649.961 79.8854 706.032 91.6954C757.199 102.474 785.979 83.407 829.447 72.4582C856.569 65.6234 879.446 67.077 905.799 74.1806C939.555 83.3712 974.193 91.5491 1009.56 98.6784C1068.58 110.439 1143.17 124.46 1206.73 119.682C1289.08 113.522 1357.43 81.7285 1439.96 75.327" stroke="url(#paint36_linear_485_2163)" stroke-miterlimit="10"/>
<path d="M2 70.566C66.3388 71.7179 124.097 93.9557 189.494 85.3766C247.242 77.8122 293.477 55.0643 350.266 46.1121C409.432 36.787 479.383 48.1911 537.101 56.5344C595.019 64.8941 649.991 76.7151 706.192 87.7572C756.98 97.7407 786.798 79.2384 830.526 68.9533C857.777 62.5409 880.824 64.0768 907.027 71.1475C940.58 80.2772 975.092 88.3019 1010.38 95.179C1069.43 106.572 1144.01 119.83 1207.23 114.926C1289.05 108.58 1358.18 78.5253 1439.99 71.6247" stroke="url(#paint37_linear_485_2163)" stroke-miterlimit="10"/>
<path d="M2 66.6275C66.6683 67.785 124.416 90.2147 190.183 81.7014C247.891 74.2303 294.455 51.8115 351.265 43.0733C410.401 33.9785 479.982 45.5197 537.651 53.7917C595.139 62.0198 650.091 73.6543 706.351 83.912C756.78 93.111 787.696 75.2396 831.724 65.6511C859.125 59.683 882.352 61.3341 908.445 68.3938C941.768 77.4363 976.125 85.2804 1011.3 91.8768C1070.45 102.848 1144.8 115.223 1207.75 110.203C1289 103.731 1358.88 75.448 1439.95 68.125" stroke="url(#paint38_linear_485_2163)" stroke-miterlimit="10"/>
<path d="M2 62.7658C67.0278 63.9506 124.826 86.5943 190.972 78.1249C248.64 70.7854 295.544 48.7232 352.413 40.2208C411.509 31.3893 480.711 43.0129 538.25 51.1916C595.339 59.31 650.231 70.6812 706.511 80.149C756.59 88.5691 788.665 71.3724 833.022 62.5189C860.593 57.0335 884 58.8108 910.013 65.8102C943.115 74.7454 977.329 82.3801 1012.4 88.6568C1071.73 99.2052 1145.67 110.533 1208.39 105.426C1289.05 98.8432 1359.65 72.3981 1439.96 64.6966" stroke="url(#paint39_linear_485_2163)" stroke-miterlimit="10"/>
<path d="M2 58.9913C67.4173 60.2091 125.205 83.0722 191.841 74.7179C249.469 67.4882 296.742 45.7989 353.671 37.5599C412.718 29.0191 481.49 40.6811 538.949 48.7556C595.638 56.7258 650.481 67.8118 706.711 76.4787C756.451 84.1583 789.753 67.6637 834.46 59.5728C862.221 54.5536 885.807 56.5229 911.76 63.4125C944.631 72.2123 978.683 79.6137 1013.62 85.5516C1073.18 95.6173 1146.52 105.776 1209.06 100.609C1289.12 94.0265 1360.38 69.3971 1439.94 61.3774" stroke="url(#paint40_linear_485_2163)" stroke-miterlimit="10"/>
<path d="M2 55.3105C67.8267 56.5721 125.675 79.6546 192.73 71.4156C250.388 64.3559 298.03 43.0396 355.03 35.0858C414.016 26.8577 482.309 38.5142 539.768 46.468C596.038 54.2682 650.84 65.0361 707.011 72.8966C756.41 79.8137 791.011 64.0871 836.088 56.797C864.048 52.277 887.804 54.4383 913.737 61.295C946.369 69.9403 980.251 77.083 1015.03 82.6496C1074.83 92.1997 1147.43 101.108 1209.83 95.8804C1289.26 89.2595 1361.16 66.55 1439.96 58.2561" stroke="url(#paint41_linear_485_2163)" stroke-miterlimit="10"/>
<path d="M2 51.7402C68.2361 53.0402 126.154 76.3422 193.798 68.2402C251.367 61.3396 299.408 40.4403 356.468 32.7881C415.384 24.8837 483.208 36.5127 540.537 44.3075C596.397 51.9212 651.16 62.3325 707.21 69.3922C756.301 75.5797 792.27 60.6155 837.695 54.1647C865.855 50.1549 889.801 52.5191 915.745 59.3265C948.13 67.7988 981.83 74.6628 1016.44 79.8363C1076.63 88.8324 1148.32 96.3474 1210.63 91.1308C1289.43 84.5483 1361.91 63.7477 1439.96 55.2179" stroke="url(#paint42_linear_485_2163)" stroke-miterlimit="10"/>
<path d="M2 48.229C68.7154 49.6058 126.743 73.1327 194.867 65.1843C252.425 58.4757 300.886 37.9932 357.985 30.6593C416.852 23.1059 484.166 34.6691 541.415 42.3322C596.857 49.7539 651.579 59.7702 707.48 66.0291C756.281 71.5145 793.668 57.3567 839.433 51.7671C867.803 48.2838 891.928 50.9004 917.912 57.6145C950.051 65.8968 983.564 72.4638 1017.99 77.2248C1078.54 85.6284 1149.24 91.7007 1211.47 86.4786C1289.65 79.9236 1362.65 61.1087 1439.96 52.3814" stroke="url(#paint43_linear_485_2163)" stroke-miterlimit="10"/>
<path d="M2 44.834C69.1947 46.2821 127.322 70.0339 196.015 62.2611C253.523 55.7499 302.374 35.7008 359.573 28.7014C418.36 21.5046 485.155 32.9855 542.314 40.4786C597.356 47.6919 652.009 57.2858 707.73 62.7438C756.281 67.4996 795.116 54.1975 841.23 49.4417C869.8 46.496 894.095 49.3704 920.168 56.0242C952.057 64.1006 985.376 70.3503 1019.6 74.6745C1080.51 82.4418 1150.13 87.0057 1212.32 81.8055C1289.9 75.3273 1363.36 58.4981 1439.96 49.5953" stroke="url(#paint44_linear_485_2163)" stroke-miterlimit="10"/>
<path d="M2 41.543C69.6641 43.0679 127.941 67.0445 197.163 59.4582C254.682 53.1555 303.942 33.5507 361.211 26.897C419.918 20.0786 486.184 31.4443 543.303 38.7619C597.955 45.7667 652.528 54.8999 708.069 59.5625C756.411 63.6162 796.723 51.1808 843.168 47.3026C871.947 44.8945 896.412 48.0431 922.585 54.5982C954.226 62.4657 987.349 68.3928 1021.35 72.2721C1082.68 79.3647 1151.11 82.3707 1213.28 77.209C1290.17 70.813 1364.07 56.0134 1439.96 46.9625" stroke="url(#paint45_linear_485_2163)" stroke-miterlimit="10"/>
<path d="M2 38.3558C70.1534 39.963 128.581 64.1371 198.372 56.7812C255.89 50.6979 305.56 31.5374 362.898 25.2457C421.525 18.8278 487.252 30.0509 544.301 37.1819C598.584 43.9673 653.057 52.6123 708.359 56.485C756.53 59.8585 798.311 48.3062 845.055 45.3057C874.014 43.4462 898.669 46.8801 924.942 53.3528C956.337 60.9965 989.26 66.5843 1023.03 70.001C1084.74 76.3805 1151.97 77.8012 1214.14 72.6778C1290.47 66.3916 1364.66 53.6381 1439.89 44.4555" stroke="url(#paint46_linear_485_2163)" stroke-miterlimit="10"/>
<path d="M1 35.2837C69.6527 36.9732 128.25 61.3942 198.6 54.2302C256.108 48.3663 306.217 29.6666 363.626 23.7644C422.153 17.7304 487.331 28.8274 544.37 35.7609C598.293 42.3434 652.646 50.4563 707.718 53.5446C755.8 56.2434 799.009 45.5907 846.112 43.4734C875.281 42.1624 900.036 45.8979 926.558 52.2829C957.711 59.6989 990.433 64.9399 1023.96 67.8834C1164.76 80.6588 1302.73 59.1067 1439.01 42.102" stroke="url(#paint47_linear_485_2163)" stroke-miterlimit="10"/>
<path d="M2 32.3103C71.162 34.093 129.929 58.7279 200.858 51.7889C258.367 46.1609 308.905 27.9274 366.383 22.3707C424.811 16.7208 489.439 27.6806 546.358 34.4112C599.972 40.7687 654.166 48.355 708.988 50.6424C757.06 52.6665 801.626 42.9629 849.079 41.7012C878.418 40.9333 903.382 44.9925 930.054 51.2842C960.851 58.5962 993.554 63.2588 1026.76 65.837C1163.97 76.4951 1307.09 56.7093 1439.96 39.8197" stroke="url(#paint48_linear_485_2163)" stroke-miterlimit="10"/>
<path d="M2 29.4585C71.6712 31.3345 130.618 56.1833 202.126 49.4747C259.645 44.0606 310.603 26.3153 368.151 21.1316C426.478 15.8821 490.547 26.6938 547.407 33.1995C600.731 39.3157 654.735 46.3644 709.307 47.9058C757.469 49.2662 803.294 40.4786 851.106 40.1111C880.614 39.8862 905.739 44.2635 932.621 50.4785C963.217 57.5491 995.701 61.8113 1028.62 63.9287C1091.35 67.9604 1154.95 64.5266 1217.15 59.5952C1291.78 53.6765 1366.53 47.1818 1439.96 37.6536" stroke="url(#paint49_linear_485_2163)" stroke-miterlimit="10"/>
<path d="M2 26.7208C71.5814 28.6571 130.448 53.5498 201.887 47.4172C259.175 42.4803 310.233 25.4262 367.332 20.2535C425.05 15.0259 487.831 25.3988 544.191 31.6631C598.674 37.6971 653.866 44.4386 709.637 45.2833C759.147 46.0348 807.388 37.73 856.788 38.7009C886.606 39.2878 911.461 44.6416 938.792 50.5877C967.182 56.7643 997.159 60.3023 1027.48 61.9754C1092 65.5354 1156 60.2859 1219.76 55.3326C1293.36 49.6168 1367.61 45.2175 1439.99 35.662" stroke="url(#paint50_linear_485_2163)" stroke-miterlimit="10"/>
<path d="M2 24.1049C72.0607 26.1345 131.167 51.2357 203.135 45.3389C260.434 40.6434 311.901 24.0391 369.09 19.2449C426.688 14.4397 488.97 24.6644 545.25 30.7258C599.473 36.5732 654.455 42.7937 709.936 42.7937C759.736 42.7937 809.046 35.5913 858.855 37.4289C888.713 38.526 913.777 44.1869 941.318 50.0069C969.518 55.9641 999.296 59.1292 1029.35 60.3798C1094.09 63.0731 1156.98 56.1451 1220.73 51.3289C1293.85 45.8051 1368.09 43.4519 1439.96 33.7757" stroke="url(#paint51_linear_485_2163)" stroke-miterlimit="10"/>
<path d="M2 21.6136C72.5899 23.7365 131.816 49.0406 204.393 43.3742C261.712 38.8981 313.578 22.7601 370.847 18.3388C428.326 13.8902 490.118 24.0437 546.368 29.9075C600.292 35.541 655.064 41.202 710.256 40.4011C760.415 39.6715 810.694 33.5498 860.922 36.2432C890.82 37.8504 916.084 43.813 943.805 49.5068C971.765 55.25 1001.4 58.0421 1031.18 58.8704C1096.09 60.6861 1157.94 52.1124 1221.67 47.4279C1294.33 42.0851 1368.46 41.7889 1439.91 31.992" stroke="url(#paint52_linear_485_2163)" stroke-miterlimit="10"/>
<path d="M2 19.2497C73.0792 21.4439 132.555 46.9619 205.641 41.5314C262.97 37.2692 315.236 21.57 372.595 17.5438C429.953 13.5175 491.246 23.5338 547.347 29.1947C601.141 34.6253 655.653 39.7541 710.546 38.1469C761.144 36.6658 812.281 31.6412 862.93 35.1793C892.887 37.2692 918.331 43.5555 946.311 49.1177C974.292 54.6799 1003.55 57.0715 1033.05 57.4884C1097.96 58.4154 1158.99 48.2345 1222.65 43.6816C1294.89 38.5144 1368.96 40.2697 1439.93 30.3302" stroke="url(#paint53_linear_485_2163)" stroke-miterlimit="10"/>
<path d="M2 17.0114C73.5685 19.3152 133.254 44.9869 206.86 39.8087C264.218 35.755 316.864 20.533 374.302 16.8468C431.501 13.1771 492.415 23.1276 548.415 28.5965C602.049 33.8296 656.263 38.4209 710.885 36.0237C761.983 33.7802 813.879 29.8472 864.977 34.2136C894.844 36.7698 920.588 43.3851 948.768 48.8212C976.429 54.153 1005.69 56.2045 1034.87 56.221C1099.77 56.2648 1160.03 44.5261 1223.6 40.0939C1295.5 35.0803 1369.39 38.8816 1439.92 28.783" stroke="url(#paint54_linear_485_2163)" stroke-miterlimit="10"/>
<path d="M2 14.9111C74.0479 17.2918 133.913 43.1774 208.048 38.1966C265.437 34.3568 318.461 19.5463 375.97 16.2551C433.109 12.9638 493.413 22.8375 549.424 28.1145C602.948 33.1391 656.892 37.2147 711.195 34.0387C762.841 31.0217 815.407 28.1803 866.974 33.3585C896.831 36.348 922.795 43.298 951.184 48.6079C978.715 53.7532 1007.72 55.4372 1036.63 55.0642C1101.44 54.2359 1161.07 40.9942 1224.55 36.6662C1296.04 31.7952 1369.74 37.6426 1439.94 27.341" stroke="url(#paint55_linear_485_2163)" stroke-miterlimit="10"/>
<path d="M1 12.9414C73.4972 15.4043 133.572 41.4654 208.196 36.7041C265.615 33.0344 319.039 18.7011 376.578 15.7225C433.597 12.7714 493.412 22.6286 549.393 27.7081C602.817 32.5407 656.491 36.1062 710.484 32.1677C762.71 28.3608 815.925 26.5945 867.851 32.5681C897.679 35.9965 923.862 43.2756 952.501 48.4758C979.862 53.4126 1008.72 54.773 1037.38 54.0215C1102.02 52.3375 1161.14 37.6586 1224.51 33.4239C1295.65 28.668 1369.14 36.545 1439 26.0405" stroke="url(#paint56_linear_485_2163)" stroke-miterlimit="10"/>
<path d="M2 11.1094C74.8967 13.6491 135.191 39.8967 210.295 35.3274C267.743 31.8277 321.467 17.9277 379.135 15.2783C436.055 12.6672 495.431 22.508 551.321 27.412C604.676 32.102 658.08 35.1299 711.754 30.4454C764.589 25.8376 818.283 25.1245 870.659 31.8716C900.426 35.7114 926.859 43.3196 955.688 48.3991C982.909 53.1933 1011.61 54.1861 1039.97 53.0781C1104.38 50.5603 1163.08 34.5265 1226.33 30.3466C1297.23 25.6786 1370.42 35.5742 1439.97 24.8174" stroke="url(#paint57_linear_485_2163)" stroke-miterlimit="10"/>
<path d="M2 9.42578C75.356 12.0259 135.81 38.449 211.333 34.0607C268.832 30.7256 322.885 17.237 380.613 14.9112C437.443 12.6238 496.359 22.4646 552.2 27.2149C605.504 31.7513 658.649 34.2746 712.023 28.8605C765.398 23.4464 819.621 23.7646 872.406 31.2576C902.104 35.4759 928.796 43.3255 957.785 48.383C984.747 53.095 1013.49 53.6874 1041.5 52.2228C1105.65 48.9316 1164.02 31.6032 1227.14 27.4782C1297.73 22.865 1370.71 34.7628 1439.96 23.7152" stroke="url(#paint58_linear_485_2163)" stroke-miterlimit="10"/>
<path d="M2 7.85645C75.7554 10.5114 136.34 37.11 212.312 32.8918C269.79 29.7157 324.163 16.6331 381.961 14.609C438.661 12.6232 497.198 22.497 552.979 27.1102C606.253 31.4985 659.148 33.5445 712.213 27.4173C766.276 21.1805 820.819 22.4805 873.984 30.7086C903.622 35.2834 930.544 43.4292 959.702 48.4154C986.554 53.0067 1015.14 53.27 1042.86 51.5092C1073.11 49.5838 1102.6 45.1736 1131.64 40.2806C1162.97 35.0091 1195.22 26.9675 1227.86 24.8392C1298.21 20.2479 1370.94 34.1205 1439.91 22.7438" stroke="url(#paint59_linear_485_2163)" stroke-miterlimit="10"/>
<path d="M2 6.48535C76.1149 9.18416 136.809 35.9529 213.221 31.8772C270.749 28.8054 325.412 16.0848 383.279 14.3624C439.889 12.6564 498.007 22.5905 553.738 27.0885C607.012 31.3781 659.698 32.9414 712.453 26.1231C767.105 19.0579 822.008 21.3014 875.562 30.2426C905.07 35.1794 932.221 43.5721 961.53 48.487C988.272 52.9686 1016.73 52.9356 1044.18 50.8731C1074.37 48.6132 1103.69 43.8189 1132.56 38.6133C1163.66 33.0072 1195.96 24.5487 1228.59 22.404C1298.72 17.8017 1371.22 33.6216 1439.92 21.8554" stroke="url(#paint60_linear_485_2163)" stroke-miterlimit="10"/>
<path d="M2 5.24023C76.4544 7.98293 137.308 34.9107 214.049 30.9557C271.618 27.9827 326.54 15.646 384.458 14.1705C440.988 12.7278 498.716 22.777 554.407 27.1599C607.691 31.3452 660.187 32.4697 712.633 24.9657C767.914 17.0832 823.066 20.2099 877 29.8367C906.398 35.0808 933.749 43.7312 963.207 48.5913C989.84 52.9796 1018.13 52.6724 1045.38 50.3411C1075.5 47.763 1104.67 42.6067 1133.39 37.1158C1164.28 31.2081 1196.62 22.3766 1229.25 20.1989C1299.15 15.5363 1371.48 33.2816 1439.95 21.093" stroke="url(#paint61_linear_485_2163)" stroke-miterlimit="10"/>
<path d="M2 4.14844C76.764 6.89113 137.718 34.0054 214.788 30.1437C272.427 27.2529 327.628 15.2564 385.606 14.0221C442.076 12.8154 499.445 23.0127 555.076 27.3078C608.38 31.4163 660.726 32.1239 712.852 23.9781C768.703 15.2509 823.995 19.2004 878.308 29.4635C907.606 35.0092 935.137 43.8846 964.715 48.7008C991.258 53.0178 1019.45 52.4692 1046.44 49.8911C1076.52 47.0168 1105.53 41.5314 1134.11 35.7772C1164.84 29.5842 1197.2 20.451 1229.87 18.224C1299.63 13.4626 1371.78 33.0894 1439.95 20.4181" stroke="url(#paint62_linear_485_2163)" stroke-miterlimit="10"/>
<path d="M2 3.21582C77.0536 5.95852 138.067 33.2428 215.437 29.4415C273.086 26.611 328.537 14.9326 386.565 13.8904C442.975 12.8975 499.964 23.2759 555.595 27.5106C608.93 31.5698 661.176 31.8989 713.002 23.1223C769.432 13.5613 824.754 18.2568 879.466 29.1562C908.635 34.9707 936.325 44.0491 966.013 48.8323C992.476 53.1 1020.53 52.343 1047.33 49.5454C1077.37 46.4023 1106.24 40.6207 1134.71 34.6252C1165.3 28.1798 1197.63 18.8108 1230.39 16.5234C1300 11.614 1372.06 33.0893 1439.96 19.8585" stroke="url(#paint63_linear_485_2163)" stroke-miterlimit="10"/>
<path d="M2 2.4375C76.6841 5.1802 137.498 32.4645 214.419 28.9265C275.203 26.1344 333.959 13.5235 395.292 13.7813C447.728 14.0007 500.343 23.463 552.14 27.5332C607.172 31.8557 659.847 31.735 713.142 22.4811C772.238 12.2454 827.61 17.6265 884.569 29.7986C910.103 35.2511 934.428 42.6893 960.152 47.7962C987.373 53.1993 1017.26 52.6727 1045.27 49.6722C1077.06 46.2713 1107.48 39.7985 1137.46 33.216C1167.68 26.5568 1199.8 17.1822 1232.39 14.9881C1301.29 10.3749 1372.95 33.1502 1439.95 19.4148" stroke="url(#paint64_linear_485_2163)" stroke-miterlimit="10"/>
<path d="M2 1.82324C76.8938 4.52754 137.708 31.9929 214.838 28.4493C275.642 25.6518 334.668 13.3371 395.981 13.7485C448.377 14.105 500.723 23.8306 552.49 27.9063C607.562 32.2397 660.227 31.8119 713.262 21.9546C772.957 10.8522 828.039 16.8642 885.468 29.6342C910.882 35.2841 935.277 42.7881 961.07 47.9005C988.232 53.3091 1017.99 52.6728 1045.84 49.5023C1077.61 45.8874 1107.91 39.1349 1137.8 32.3769C1167.98 25.553 1200.09 16.0743 1232.76 13.7704C1301.53 8.95425 1373.27 33.4356 1439.96 19.0364" stroke="url(#paint65_linear_485_2163)" stroke-miterlimit="10"/>
<path d="M2 1.38379C77.0436 4.0442 137.807 31.6741 215.158 28.0757C275.972 25.2452 335.128 13.1938 396.521 13.7369C448.896 14.1977 500.993 24.2359 552.739 28.3445C607.841 32.7328 660.586 32.0362 713.282 21.5865C773.556 9.6393 828.199 16.1559 886.117 29.4635C911.471 35.2835 935.926 42.8643 961.739 48.037C988.881 53.4731 1018.38 52.7874 1046.21 49.4687C1110.51 41.7892 1168.12 17.7467 1233.03 12.8976C1301.69 7.76878 1373.62 33.9012 1439.96 18.778" stroke="url(#paint66_linear_485_2163)" stroke-miterlimit="10"/>
<path d="M2 1.10449C77.1634 3.71005 137.907 31.5045 215.348 27.8183C276.171 24.9166 335.527 13.101 396.89 13.7319C449.276 14.2804 501.142 24.6697 552.869 28.8496C607.991 33.3037 660.916 32.4041 713.312 21.3895C774.115 8.60302 828.149 15.4982 886.616 29.3433C911.76 35.284 936.276 43.1555 962.149 48.1253C989.63 53.3967 1018.24 52.9689 1046.37 49.5021C1110.78 41.5592 1168.07 17.4948 1233.21 12.2947C1301.78 6.8093 1374.01 34.538 1439.92 18.6139" stroke="url(#paint67_linear_485_2163)" stroke-miterlimit="10"/>
<path d="M1.00024 1C76.2436 3.52877 136.878 31.4878 214.398 27.6645C275.221 24.664 334.657 13.0459 396.14 13.7261C448.536 14.3076 500.203 25.1357 551.919 29.4143C607.041 33.9727 660.246 32.925 712.332 21.3563C773.605 7.73606 826.879 14.878 885.906 29.2498C939.829 42.3708 984.256 57.3075 1045.32 49.617C1109.9 41.4822 1166.92 17.6207 1232.29 12.0037C1300.78 6.11787 1373.39 35.344 1439 18.5862" stroke="url(#paint68_linear_485_2163)" stroke-miterlimit="10"/>
<defs>
<linearGradient id="paint0_linear_485_2163" x1="1.03669e+06" y1="393.67" x2="1.03669e+06" y2="319.45" gradientUnits="userSpaceOnUse">
<stop stop-color="#592CB8"/>
<stop offset="1" stop-color="#2C66B8"/>
</linearGradient>
<linearGradient id="paint1_linear_485_2163" x1="1.03666e+06" y1="630.309" x2="1.03666e+06" y2="374.871" gradientUnits="userSpaceOnUse">
<stop stop-color="#592CB8"/>
<stop offset="1" stop-color="#2C66B8"/>
</linearGradient>
<linearGradient id="paint2_linear_485_2163" x1="1.03669e+06" y1="916.275" x2="1.03669e+06" y2="444.543" gradientUnits="userSpaceOnUse">
<stop stop-color="#592CB8"/>
<stop offset="1" stop-color="#2C66B8"/>
</linearGradient>
<linearGradient id="paint3_linear_485_2163" x1="1.03669e+06" y1="1343.04" x2="1.03669e+06" y2="552.371" gradientUnits="userSpaceOnUse">
<stop stop-color="#592CB8"/>
<stop offset="1" stop-color="#2C66B8"/>
</linearGradient>
<linearGradient id="paint4_linear_485_2163" x1="1.03669e+06" y1="2051.75" x2="1.03669e+06" y2="735.146" gradientUnits="userSpaceOnUse">
<stop stop-color="#592CB8"/>
<stop offset="1" stop-color="#2C66B8"/>
</linearGradient>
<linearGradient id="paint5_linear_485_2163" x1="1.03669e+06" y1="2831.21" x2="1.03669e+06" y2="937.189" gradientUnits="userSpaceOnUse">
<stop stop-color="#592CB8"/>
<stop offset="1" stop-color="#2C66B8"/>
</linearGradient>
<linearGradient id="paint6_linear_485_2163" x1="1.03669e+06" y1="3779.88" x2="1.03669e+06" y2="1184.2" gradientUnits="userSpaceOnUse">
<stop stop-color="#592CB8"/>
<stop offset="1" stop-color="#2C66B8"/>
</linearGradient>
<linearGradient id="paint7_linear_485_2163" x1="1.03667e+06" y1="4777.37" x2="1.03667e+06" y2="1444.38" gradientUnits="userSpaceOnUse">
<stop stop-color="#592CB8"/>
<stop offset="1" stop-color="#2C66B8"/>
</linearGradient>
<linearGradient id="paint8_linear_485_2163" x1="1.03669e+06" y1="5777.85" x2="1.03669e+06" y2="1705.48" gradientUnits="userSpaceOnUse">
<stop stop-color="#592CB8"/>
<stop offset="1" stop-color="#2C66B8"/>
</linearGradient>
<linearGradient id="paint9_linear_485_2163" x1="1.03666e+06" y1="6728.87" x2="1.03666e+06" y2="1953.53" gradientUnits="userSpaceOnUse">
<stop stop-color="#592CB8"/>
<stop offset="1" stop-color="#2C66B8"/>
</linearGradient>
<linearGradient id="paint10_linear_485_2163" x1="1.03669e+06" y1="7672.27" x2="1.03669e+06" y2="2199.34" gradientUnits="userSpaceOnUse">
<stop stop-color="#592CB8"/>
<stop offset="1" stop-color="#2C66B8"/>
</linearGradient>
<linearGradient id="paint11_linear_485_2163" x1="1.03669e+06" y1="8396.76" x2="1.03669e+06" y2="2387.24" gradientUnits="userSpaceOnUse">
<stop stop-color="#592CB8"/>
<stop offset="1" stop-color="#2C66B8"/>
</linearGradient>
<linearGradient id="paint12_linear_485_2163" x1="1.03669e+06" y1="8933.38" x2="1.03669e+06" y2="2525.21" gradientUnits="userSpaceOnUse">
<stop stop-color="#592CB8"/>
<stop offset="1" stop-color="#2C66B8"/>
</linearGradient>
<linearGradient id="paint13_linear_485_2163" x1="1.03671e+06" y1="9219.6" x2="1.03671e+06" y2="2596.56" gradientUnits="userSpaceOnUse">
<stop stop-color="#592CB8"/>
<stop offset="1" stop-color="#2C66B8"/>
</linearGradient>
<linearGradient id="paint14_linear_485_2163" x1="1.03669e+06" y1="9346.35" x2="1.03669e+06" y2="2625.2" gradientUnits="userSpaceOnUse">
<stop stop-color="#592CB8"/>
<stop offset="1" stop-color="#2C66B8"/>
</linearGradient>
<linearGradient id="paint15_linear_485_2163" x1="1.03666e+06" y1="9474.83" x2="1.03666e+06" y2="2654.3" gradientUnits="userSpaceOnUse">
<stop stop-color="#592CB8"/>
<stop offset="1" stop-color="#2C66B8"/>
</linearGradient>
<linearGradient id="paint16_linear_485_2163" x1="1.03667e+06" y1="9547.3" x2="1.03667e+06" y2="2668.84" gradientUnits="userSpaceOnUse">
<stop stop-color="#592CB8"/>
<stop offset="1" stop-color="#2C66B8"/>
</linearGradient>
<linearGradient id="paint17_linear_485_2163" x1="1.03671e+06" y1="9567.75" x2="1.03671e+06" y2="2669.84" gradientUnits="userSpaceOnUse">
<stop stop-color="#592CB8"/>
<stop offset="1" stop-color="#2C66B8"/>
</linearGradient>
<linearGradient id="paint18_linear_485_2163" x1="1.03669e+06" y1="9542.65" x2="1.03669e+06" y2="2659.01" gradientUnits="userSpaceOnUse">
<stop stop-color="#592CB8"/>
<stop offset="1" stop-color="#2C66B8"/>
</linearGradient>
<linearGradient id="paint19_linear_485_2163" x1="1.03669e+06" y1="9476.28" x2="1.03669e+06" y2="2637.46" gradientUnits="userSpaceOnUse">
<stop stop-color="#592CB8"/>
<stop offset="1" stop-color="#2C66B8"/>
</linearGradient>
<linearGradient id="paint20_linear_485_2163" x1="1.03669e+06" y1="9324.65" x2="1.03669e+06" y2="2593.67" gradientUnits="userSpaceOnUse">
<stop stop-color="#592CB8"/>
<stop offset="1" stop-color="#2C66B8"/>
</linearGradient>
<linearGradient id="paint21_linear_485_2163" x1="1.0367e+06" y1="9223.04" x2="1.0367e+06" y2="2563.12" gradientUnits="userSpaceOnUse">
<stop stop-color="#592CB8"/>
<stop offset="1" stop-color="#2C66B8"/>
</linearGradient>
<linearGradient id="paint22_linear_485_2163" x1="1.03666e+06" y1="9100.37" x2="1.03666e+06" y2="2527.13" gradientUnits="userSpaceOnUse">
<stop stop-color="#592CB8"/>
<stop offset="1" stop-color="#2C66B8"/>
</linearGradient>
<linearGradient id="paint23_linear_485_2163" x1="1.03669e+06" y1="8970.16" x2="1.03669e+06" y2="2489.28" gradientUnits="userSpaceOnUse">
<stop stop-color="#592CB8"/>
<stop offset="1" stop-color="#2C66B8"/>
</linearGradient>
<linearGradient id="paint24_linear_485_2163" x1="1.03671e+06" y1="8832.49" x2="1.03671e+06" y2="2449.56" gradientUnits="userSpaceOnUse">
<stop stop-color="#592CB8"/>
<stop offset="1" stop-color="#2C66B8"/>
</linearGradient>
<linearGradient id="paint25_linear_485_2163" x1="1.03667e+06" y1="8693.01" x2="1.03667e+06" y2="2409.42" gradientUnits="userSpaceOnUse">
<stop stop-color="#592CB8"/>
<stop offset="1" stop-color="#2C66B8"/>
</linearGradient>
<linearGradient id="paint26_linear_485_2163" x1="1.03669e+06" y1="8511.4" x2="1.03669e+06" y2="2358.28" gradientUnits="userSpaceOnUse">
<stop stop-color="#592CB8"/>
<stop offset="1" stop-color="#2C66B8"/>
</linearGradient>
<linearGradient id="paint27_linear_485_2163" x1="1.03666e+06" y1="8381.43" x2="1.03666e+06" y2="2320.78" gradientUnits="userSpaceOnUse">
<stop stop-color="#592CB8"/>
<stop offset="1" stop-color="#2C66B8"/>
</linearGradient>
<linearGradient id="paint28_linear_485_2163" x1="1.03666e+06" y1="8265.59" x2="1.03666e+06" y2="2287.03" gradientUnits="userSpaceOnUse">
<stop stop-color="#592CB8"/>
<stop offset="1" stop-color="#2C66B8"/>
</linearGradient>
<linearGradient id="paint29_linear_485_2163" x1="1.03666e+06" y1="8174.56" x2="1.03666e+06" y2="2259.88" gradientUnits="userSpaceOnUse">
<stop stop-color="#592CB8"/>
<stop offset="1" stop-color="#2C66B8"/>
</linearGradient>
<linearGradient id="paint30_linear_485_2163" x1="1.03671e+06" y1="8096.02" x2="1.03671e+06" y2="2235.96" gradientUnits="userSpaceOnUse">
<stop stop-color="#592CB8"/>
<stop offset="1" stop-color="#2C66B8"/>
</linearGradient>
<linearGradient id="paint31_linear_485_2163" x1="1.03669e+06" y1="8057.07" x2="1.03669e+06" y2="2222.5" gradientUnits="userSpaceOnUse">
<stop stop-color="#592CB8"/>
<stop offset="1" stop-color="#2C66B8"/>
</linearGradient>
<linearGradient id="paint32_linear_485_2163" x1="1.03669e+06" y1="8038.38" x2="1.03669e+06" y2="2214.35" gradientUnits="userSpaceOnUse">
<stop stop-color="#592CB8"/>
<stop offset="1" stop-color="#2C66B8"/>
</linearGradient>
<linearGradient id="paint33_linear_485_2163" x1="1.03671e+06" y1="7986.94" x2="1.03671e+06" y2="2197.54" gradientUnits="userSpaceOnUse">
<stop stop-color="#592CB8"/>
<stop offset="1" stop-color="#2C66B8"/>
</linearGradient>
<linearGradient id="paint34_linear_485_2163" x1="1.03669e+06" y1="7909.64" x2="1.03669e+06" y2="2173.91" gradientUnits="userSpaceOnUse">
<stop stop-color="#592CB8"/>
<stop offset="1" stop-color="#2C66B8"/>
</linearGradient>
<linearGradient id="paint35_linear_485_2163" x1="1.03671e+06" y1="7796.88" x2="1.03671e+06" y2="2140.88" gradientUnits="userSpaceOnUse">
<stop stop-color="#592CB8"/>
<stop offset="1" stop-color="#2C66B8"/>
</linearGradient>
<linearGradient id="paint36_linear_485_2163" x1="1.03669e+06" y1="7661.81" x2="1.03669e+06" y2="2102.01" gradientUnits="userSpaceOnUse">
<stop stop-color="#592CB8"/>
<stop offset="1" stop-color="#2C66B8"/>
</linearGradient>
<linearGradient id="paint37_linear_485_2163" x1="1.03671e+06" y1="7500.34" x2="1.03671e+06" y2="2056.14" gradientUnits="userSpaceOnUse">
<stop stop-color="#592CB8"/>
<stop offset="1" stop-color="#2C66B8"/>
</linearGradient>
<linearGradient id="paint38_linear_485_2163" x1="1.03668e+06" y1="7320.32" x2="1.03668e+06" y2="2005.43" gradientUnits="userSpaceOnUse">
<stop stop-color="#592CB8"/>
<stop offset="1" stop-color="#2C66B8"/>
</linearGradient>
<linearGradient id="paint39_linear_485_2163" x1="1.03669e+06" y1="7116.47" x2="1.03669e+06" y2="1948.44" gradientUnits="userSpaceOnUse">
<stop stop-color="#592CB8"/>
<stop offset="1" stop-color="#2C66B8"/>
</linearGradient>
<linearGradient id="paint40_linear_485_2163" x1="1.03667e+06" y1="6890.23" x2="1.03667e+06" y2="1885.54" gradientUnits="userSpaceOnUse">
<stop stop-color="#592CB8"/>
<stop offset="1" stop-color="#2C66B8"/>
</linearGradient>
<linearGradient id="paint41_linear_485_2163" x1="1.03669e+06" y1="6656.88" x2="1.03669e+06" y2="1820.86" gradientUnits="userSpaceOnUse">
<stop stop-color="#592CB8"/>
<stop offset="1" stop-color="#2C66B8"/>
</linearGradient>
<linearGradient id="paint42_linear_485_2163" x1="1.03669e+06" y1="6404.69" x2="1.03669e+06" y2="1751.22" gradientUnits="userSpaceOnUse">
<stop stop-color="#592CB8"/>
<stop offset="1" stop-color="#2C66B8"/>
</linearGradient>
<linearGradient id="paint43_linear_485_2163" x1="1.03669e+06" y1="6150.55" x2="1.03669e+06" y2="1681.18" gradientUnits="userSpaceOnUse">
<stop stop-color="#592CB8"/>
<stop offset="1" stop-color="#2C66B8"/>
</linearGradient>
<linearGradient id="paint44_linear_485_2163" x1="1.03669e+06" y1="5883.13" x2="1.03669e+06" y2="1607.68" gradientUnits="userSpaceOnUse">
<stop stop-color="#592CB8"/>
<stop offset="1" stop-color="#2C66B8"/>
</linearGradient>
<linearGradient id="paint45_linear_485_2163" x1="1.03669e+06" y1="5616.92" x2="1.03669e+06" y2="1534.62" gradientUnits="userSpaceOnUse">
<stop stop-color="#592CB8"/>
<stop offset="1" stop-color="#2C66B8"/>
</linearGradient>
<linearGradient id="paint46_linear_485_2163" x1="1.03664e+06" y1="5356.31" x2="1.03664e+06" y2="1463.19" gradientUnits="userSpaceOnUse">
<stop stop-color="#592CB8"/>
<stop offset="1" stop-color="#2C66B8"/>
</linearGradient>
<linearGradient id="paint47_linear_485_2163" x1="1.03672e+06" y1="5077.19" x2="1.03672e+06" y2="1386.88" gradientUnits="userSpaceOnUse">
<stop stop-color="#592CB8"/>
<stop offset="1" stop-color="#2C66B8"/>
</linearGradient>
<linearGradient id="paint48_linear_485_2163" x1="1.03669e+06" y1="4905.1" x2="1.03669e+06" y2="1339.52" gradientUnits="userSpaceOnUse">
<stop stop-color="#592CB8"/>
<stop offset="1" stop-color="#2C66B8"/>
</linearGradient>
<linearGradient id="paint49_linear_485_2163" x1="1.03669e+06" y1="4693.04" x2="1.03669e+06" y2="1281.49" gradientUnits="userSpaceOnUse">
<stop stop-color="#592CB8"/>
<stop offset="1" stop-color="#2C66B8"/>
</linearGradient>
<linearGradient id="paint50_linear_485_2163" x1="1.03671e+06" y1="4524.48" x2="1.03671e+06" y2="1235.31" gradientUnits="userSpaceOnUse">
<stop stop-color="#592CB8"/>
<stop offset="1" stop-color="#2C66B8"/>
</linearGradient>
<linearGradient id="paint51_linear_485_2163" x1="1.03669e+06" y1="4388.12" x2="1.03669e+06" y2="1197.89" gradientUnits="userSpaceOnUse">
<stop stop-color="#592CB8"/>
<stop offset="1" stop-color="#2C66B8"/>
</linearGradient>
<linearGradient id="paint52_linear_485_2163" x1="1.03665e+06" y1="4274.75" x2="1.03665e+06" y2="1166.73" gradientUnits="userSpaceOnUse">
<stop stop-color="#592CB8"/>
<stop offset="1" stop-color="#2C66B8"/>
</linearGradient>
<linearGradient id="paint53_linear_485_2163" x1="1.03666e+06" y1="4178.31" x2="1.03666e+06" y2="1140.24" gradientUnits="userSpaceOnUse">
<stop stop-color="#592CB8"/>
<stop offset="1" stop-color="#2C66B8"/>
</linearGradient>
<linearGradient id="paint54_linear_485_2163" x1="1.03666e+06" y1="4099.87" x2="1.03666e+06" y2="1118.65" gradientUnits="userSpaceOnUse">
<stop stop-color="#592CB8"/>
<stop offset="1" stop-color="#2C66B8"/>
</linearGradient>
<linearGradient id="paint55_linear_485_2163" x1="1.03667e+06" y1="4102.33" x2="1.03667e+06" y2="1118.48" gradientUnits="userSpaceOnUse">
<stop stop-color="#592CB8"/>
<stop offset="1" stop-color="#2C66B8"/>
</linearGradient>
<linearGradient id="paint56_linear_485_2163" x1="1.03671e+06" y1="4209.18" x2="1.03671e+06" y2="1145.89" gradientUnits="userSpaceOnUse">
<stop stop-color="#592CB8"/>
<stop offset="1" stop-color="#2C66B8"/>
</linearGradient>
<linearGradient id="paint57_linear_485_2163" x1="1.03669e+06" y1="4319.88" x2="1.03669e+06" y2="1174.44" gradientUnits="userSpaceOnUse">
<stop stop-color="#592CB8"/>
<stop offset="1" stop-color="#2C66B8"/>
</linearGradient>
<linearGradient id="paint58_linear_485_2163" x1="1.03669e+06" y1="4432.54" x2="1.03669e+06" y2="1203.63" gradientUnits="userSpaceOnUse">
<stop stop-color="#592CB8"/>
<stop offset="1" stop-color="#2C66B8"/>
</linearGradient>
<linearGradient id="paint59_linear_485_2163" x1="1.03665e+06" y1="4548.43" x2="1.03665e+06" y2="1233.77" gradientUnits="userSpaceOnUse">
<stop stop-color="#592CB8"/>
<stop offset="1" stop-color="#2C66B8"/>
</linearGradient>
<linearGradient id="paint60_linear_485_2163" x1="1.03666e+06" y1="4655.85" x2="1.03666e+06" y2="1261.77" gradientUnits="userSpaceOnUse">
<stop stop-color="#592CB8"/>
<stop offset="1" stop-color="#2C66B8"/>
</linearGradient>
<linearGradient id="paint61_linear_485_2163" x1="1.03668e+06" y1="4760.88" x2="1.03668e+06" y2="1289.22" gradientUnits="userSpaceOnUse">
<stop stop-color="#592CB8"/>
<stop offset="1" stop-color="#2C66B8"/>
</linearGradient>
<linearGradient id="paint62_linear_485_2163" x1="1.03668e+06" y1="4857.75" x2="1.03668e+06" y2="1314.58" gradientUnits="userSpaceOnUse">
<stop stop-color="#592CB8"/>
<stop offset="1" stop-color="#2C66B8"/>
</linearGradient>
<linearGradient id="paint63_linear_485_2163" x1="1.03669e+06" y1="4946.67" x2="1.03669e+06" y2="1337.9" gradientUnits="userSpaceOnUse">
<stop stop-color="#592CB8"/>
<stop offset="1" stop-color="#2C66B8"/>
</linearGradient>
<linearGradient id="paint64_linear_485_2163" x1="1.03668e+06" y1="5031.91" x2="1.03668e+06" y2="1360.35" gradientUnits="userSpaceOnUse">
<stop stop-color="#592CB8"/>
<stop offset="1" stop-color="#2C66B8"/>
</linearGradient>
<linearGradient id="paint65_linear_485_2163" x1="1.03669e+06" y1="5096.06" x2="1.03669e+06" y2="1377.22" gradientUnits="userSpaceOnUse">
<stop stop-color="#592CB8"/>
<stop offset="1" stop-color="#2C66B8"/>
</linearGradient>
<linearGradient id="paint66_linear_485_2163" x1="1.03669e+06" y1="5151.79" x2="1.03669e+06" y2="1391.95" gradientUnits="userSpaceOnUse">
<stop stop-color="#592CB8"/>
<stop offset="1" stop-color="#2C66B8"/>
</linearGradient>
<linearGradient id="paint67_linear_485_2163" x1="1.03666e+06" y1="5185.84" x2="1.03666e+06" y2="1400.94" gradientUnits="userSpaceOnUse">
<stop stop-color="#592CB8"/>
<stop offset="1" stop-color="#2C66B8"/>
</linearGradient>
<linearGradient id="paint68_linear_485_2163" x1="1.03671e+06" y1="5157.47" x2="1.03671e+06" y2="1393.2" gradientUnits="userSpaceOnUse">
<stop stop-color="#592CB8"/>
<stop offset="1" stop-color="#2C66B8"/>
</linearGradient>
</defs>
</svg>
