<svg width="447" height="75" viewBox="0 0 447 75" fill="none" xmlns="http://www.w3.org/2000/svg">
<path d="M21.3516 31.0873C20.5653 34.7519 19.8628 38.0321 19.1603 41.3084C18.9964 41.2967 18.8578 41.3201 18.8344 41.2811C15.6479 35.671 13.5209 29.8092 14.4107 23.1921C14.5941 21.8223 14.9922 21.1744 16.604 21.2018C23.0376 21.3149 29.4751 21.1881 35.9087 21.272C41.5325 21.3462 46.9377 22.3784 51.6736 25.6801C56.5383 29.0696 59.1863 33.786 59.5278 39.6635C60.3688 54.1483 51.297 67.2731 37.2454 72.128C33.1885 73.5291 29.0185 74.2823 24.7314 74.2979C16.9592 74.3272 9.1889 74.3096 1.41668 74.3057C1.02836 74.3057 0.641993 74.2569 0 74.214C2.44114 62.7245 4.85886 51.3403 7.34292 39.6459C7.65904 40.2918 7.85417 40.6586 8.02004 41.0372C9.94212 45.4707 12.473 49.5334 15.5327 53.2604C16.1962 54.0683 16.3621 54.7942 16.1201 55.805C15.4644 58.5388 14.9239 61.298 14.3502 63.9948C14.518 64.1334 14.5922 64.2465 14.6624 64.2446C20.1379 64.0768 25.7305 64.5431 31.0654 63.5831C40.51 61.8854 46.7406 53.8576 47.0977 44.2394C47.3436 37.5697 43.4897 32.5079 36.8161 31.6883C31.7367 31.0619 26.5637 31.257 21.3516 31.0873Z" fill="url(#paint0_linear_514_7265)"/>
<path d="M4.84517 27.2784C3.38361 18.829 4.26952 11.0373 11.2944 5.12082C14.7131 2.24063 18.809 1.00542 23.1995 0.745896C30.9464 0.28928 38.102 2.45137 44.7951 6.12186C58.357 13.5623 68.4006 24.283 74.198 38.725C76.5689 44.6317 77.6968 50.7862 76.5455 57.1789C74.8556 66.5668 67.9049 72.7955 58.357 73.3809C55.7695 73.5389 53.1644 73.4043 50.5691 73.4043C50.5652 73.2209 50.5594 73.0355 50.5555 72.8521C51.7224 72.7213 52.901 72.6628 54.0523 72.4481C63.1866 70.7368 68.5859 64.2974 68.7635 54.8646C68.865 49.4183 67.5654 44.2453 65.1984 39.3865C58.5423 25.7173 48.2841 15.8805 33.8968 10.6392C29.0536 8.87521 24.025 8.17858 18.8695 9.18742C10.7304 10.7797 5.30178 17.026 4.85102 25.3465C4.8159 25.9924 4.84517 26.6364 4.84517 27.2784Z" fill="url(#paint1_linear_514_7265)"/>
<path d="M34.572 60.6756C32.5251 61.1497 30.4879 61.6668 28.4253 62.0649C28.0253 62.143 27.4613 61.8678 27.1023 61.5888C18.1807 54.6576 11.3666 46.1907 8.14103 35.1793C6.81412 30.6521 6.38872 26.0411 7.7332 21.434C9.43673 15.5975 14.2956 11.6401 20.3721 11.1504C22.3234 10.9943 24.2962 11.125 25.6153 11.125C23.9782 11.5875 21.6151 11.9075 19.5759 12.8968C13.8273 15.6872 11.9676 20.7881 12.2057 26.7943C12.5277 34.9431 16.1045 41.8158 21.0102 48.0874C24.5753 52.6438 28.8097 56.488 33.7173 59.575C34.0061 59.7565 34.2774 59.9653 34.5564 60.1604C34.5623 60.336 34.5662 60.5058 34.572 60.6756Z" fill="url(#paint2_linear_514_7265)"/>
<path d="M46.1455 70.177C47.8998 68.6959 49.535 67.2773 51.221 65.9211C51.5722 65.6382 52.0952 65.486 52.5576 65.4391C61.3758 64.5532 65.9361 59.7451 66.3127 51.0089C67.1127 56.4571 66.5351 61.6164 62.6773 65.9172C59.042 69.9663 52.0932 71.7088 46.1455 70.177Z" fill="url(#paint3_linear_514_7265)"/>
<path d="M99.368 54.3146V31.5946H107.624C110.099 31.5946 112.168 32.1066 113.832 33.1306C115.496 34.1332 116.744 35.4986 117.576 37.2266C118.408 38.9332 118.824 40.8319 118.824 42.9226C118.824 45.2266 118.365 47.2319 117.448 48.9386C116.531 50.6452 115.229 51.9679 113.544 52.9066C111.88 53.8452 109.907 54.3146 107.624 54.3146H99.368ZM114.376 42.9226C114.376 41.4506 114.109 40.1599 113.576 39.0506C113.043 37.9199 112.275 37.0452 111.272 36.4266C110.269 35.7866 109.053 35.4666 107.624 35.4666H103.784V50.4426H107.624C109.075 50.4426 110.301 50.1226 111.304 49.4826C112.307 48.8212 113.064 47.9252 113.576 46.7946C114.109 45.6426 114.376 44.3519 114.376 42.9226ZM131.97 54.4746C130.306 54.4746 128.792 54.1546 127.426 53.5146C126.082 52.8746 124.92 52.0106 123.938 50.9226C122.978 49.8132 122.232 48.5759 121.698 47.2106C121.165 45.8239 120.898 44.4052 120.898 42.9546C120.898 41.4399 121.176 39.9999 121.73 38.6346C122.306 37.2479 123.085 36.0212 124.066 34.9546C125.069 33.8666 126.242 33.0132 127.586 32.3946C128.952 31.7546 130.445 31.4346 132.066 31.4346C133.709 31.4346 135.202 31.7652 136.546 32.4266C137.912 33.0879 139.074 33.9732 140.034 35.0826C140.994 36.1919 141.741 37.4292 142.274 38.7946C142.808 40.1599 143.074 41.5679 143.074 43.0186C143.074 44.5119 142.797 45.9519 142.242 47.3386C141.688 48.7039 140.909 49.9306 139.906 51.0186C138.925 52.0852 137.752 52.9279 136.386 53.5466C135.042 54.1652 133.57 54.4746 131.97 54.4746ZM125.378 42.9546C125.378 43.9359 125.528 44.8852 125.826 45.8026C126.125 46.7199 126.552 47.5412 127.106 48.2666C127.682 48.9706 128.376 49.5359 129.186 49.9626C130.018 50.3679 130.957 50.5706 132.002 50.5706C133.069 50.5706 134.018 50.3572 134.85 49.9306C135.682 49.4826 136.376 48.8959 136.93 48.1706C137.485 47.4239 137.901 46.6026 138.178 45.7066C138.477 44.7892 138.626 43.8719 138.626 42.9546C138.626 41.9732 138.466 41.0346 138.146 40.1386C137.848 39.2212 137.41 38.4106 136.834 37.7066C136.28 36.9812 135.586 36.4159 134.754 36.0106C133.944 35.5839 133.026 35.3706 132.002 35.3706C130.914 35.3706 129.954 35.5946 129.122 36.0426C128.312 36.4692 127.629 37.0452 127.074 37.7706C126.52 38.4959 126.093 39.3066 125.794 40.2026C125.517 41.0986 125.378 42.0159 125.378 42.9546ZM164.99 54.3146V39.4026L159.166 50.5066H156.702L150.878 39.4026V54.3146H146.462V31.5946H151.198L157.918 44.5226L164.702 31.5946H169.406V54.3146H164.99ZM174.149 54.3146V31.5946H178.565V54.3146H174.149ZM187.722 39.7226V54.3146H183.306V31.5946H186.826L198.569 46.5706V31.6266H202.986V54.3146H199.306L187.722 39.7226ZM213.888 31.5946H218.368L226.72 54.3146H222.176L220.064 48.6506H212.128L210.048 54.3146H205.504L213.888 31.5946ZM219.264 45.5466L216.128 36.1706L212.864 45.5466H219.264ZM244.079 35.4666H236.815V54.3146H232.431V35.4666H225.167V31.5946H244.079V35.4666ZM256.064 54.4746C254.4 54.4746 252.885 54.1546 251.52 53.5146C250.176 52.8746 249.013 52.0106 248.032 50.9226C247.072 49.8132 246.325 48.5759 245.792 47.2106C245.259 45.8239 244.992 44.4052 244.992 42.9546C244.992 41.4399 245.269 39.9999 245.824 38.6346C246.4 37.2479 247.179 36.0212 248.16 34.9546C249.163 33.8666 250.336 33.0132 251.68 32.3946C253.045 31.7546 254.539 31.4346 256.16 31.4346C257.803 31.4346 259.296 31.7652 260.64 32.4266C262.005 33.0879 263.168 33.9732 264.128 35.0826C265.088 36.1919 265.835 37.4292 266.368 38.7946C266.901 40.1599 267.168 41.5679 267.168 43.0186C267.168 44.5119 266.891 45.9519 266.336 47.3386C265.781 48.7039 265.003 49.9306 264 51.0186C263.019 52.0852 261.845 52.9279 260.48 53.5466C259.136 54.1652 257.664 54.4746 256.064 54.4746ZM249.472 42.9546C249.472 43.9359 249.621 44.8852 249.92 45.8026C250.219 46.7199 250.645 47.5412 251.2 48.2666C251.776 48.9706 252.469 49.5359 253.28 49.9626C254.112 50.3679 255.051 50.5706 256.096 50.5706C257.163 50.5706 258.112 50.3572 258.944 49.9306C259.776 49.4826 260.469 48.8959 261.024 48.1706C261.579 47.4239 261.995 46.6026 262.272 45.7066C262.571 44.7892 262.72 43.8719 262.72 42.9546C262.72 41.9732 262.56 41.0346 262.24 40.1386C261.941 39.2212 261.504 38.4106 260.928 37.7066C260.373 36.9812 259.68 36.4159 258.848 36.0106C258.037 35.5839 257.12 35.3706 256.096 35.3706C255.008 35.3706 254.048 35.5946 253.216 36.0426C252.405 36.4692 251.723 37.0452 251.168 37.7706C250.613 38.4959 250.187 39.3066 249.888 40.2026C249.611 41.0986 249.472 42.0159 249.472 42.9546ZM270.556 54.3146V31.5946H280.604C281.649 31.5946 282.609 31.8079 283.484 32.2346C284.38 32.6612 285.148 33.2372 285.788 33.9626C286.449 34.6879 286.95 35.4986 287.292 36.3946C287.654 37.2906 287.836 38.2079 287.836 39.1466C287.836 40.1066 287.665 41.0346 287.324 41.9306C287.004 42.8052 286.534 43.5732 285.916 44.2346C285.297 44.8959 284.572 45.4079 283.74 45.7706L288.924 54.3146H284.06L279.388 46.6986H274.972V54.3146H270.556ZM274.972 42.8266H280.508C281.062 42.8266 281.553 42.6666 281.98 42.3466C282.406 42.0052 282.748 41.5572 283.004 41.0026C283.26 40.4479 283.388 39.8292 283.388 39.1466C283.388 38.4212 283.238 37.7919 282.94 37.2586C282.641 36.7039 282.257 36.2666 281.788 35.9466C281.34 35.6266 280.849 35.4666 280.316 35.4666H274.972V42.8266ZM291.325 54.3146V49.7066H294.845V54.3146H291.325ZM299.024 54.3146V31.5946H307.28C309.755 31.5946 311.824 32.1066 313.488 33.1306C315.152 34.1332 316.4 35.4986 317.232 37.2266C318.064 38.9332 318.48 40.8319 318.48 42.9226C318.48 45.2266 318.022 47.2319 317.104 48.9386C316.187 50.6452 314.886 51.9679 313.2 52.9066C311.536 53.8452 309.563 54.3146 307.28 54.3146H299.024ZM314.032 42.9226C314.032 41.4506 313.766 40.1599 313.232 39.0506C312.699 37.9199 311.931 37.0452 310.928 36.4266C309.926 35.7866 308.71 35.4666 307.28 35.4666H303.44V50.4426H307.28C308.731 50.4426 309.958 50.1226 310.96 49.4826C311.963 48.8212 312.72 47.9252 313.232 46.7946C313.766 45.6426 314.032 44.3519 314.032 42.9226ZM331.627 54.4746C329.963 54.4746 328.448 54.1546 327.083 53.5146C325.739 52.8746 324.576 52.0106 323.595 50.9226C322.635 49.8132 321.888 48.5759 321.355 47.2106C320.821 45.8239 320.555 44.4052 320.555 42.9546C320.555 41.4399 320.832 39.9999 321.387 38.6346C321.963 37.2479 322.741 36.0212 323.723 34.9546C324.725 33.8666 325.899 33.0132 327.243 32.3946C328.608 31.7546 330.101 31.4346 331.723 31.4346C333.365 31.4346 334.859 31.7652 336.203 32.4266C337.568 33.0879 338.731 33.9732 339.691 35.0826C340.651 36.1919 341.397 37.4292 341.931 38.7946C342.464 40.1599 342.731 41.5679 342.731 43.0186C342.731 44.5119 342.453 45.9519 341.899 47.3386C341.344 48.7039 340.565 49.9306 339.562 51.0186C338.581 52.0852 337.408 52.9279 336.043 53.5466C334.699 54.1652 333.227 54.4746 331.627 54.4746ZM325.035 42.9546C325.035 43.9359 325.184 44.8852 325.483 45.8026C325.781 46.7199 326.208 47.5412 326.763 48.2666C327.339 48.9706 328.032 49.5359 328.843 49.9626C329.675 50.3679 330.613 50.5706 331.659 50.5706C332.725 50.5706 333.675 50.3572 334.507 49.9306C335.339 49.4826 336.032 48.8959 336.587 48.1706C337.141 47.4239 337.557 46.6026 337.835 45.7066C338.133 44.7892 338.283 43.8719 338.283 42.9546C338.283 41.9732 338.123 41.0346 337.803 40.1386C337.504 39.2212 337.067 38.4106 336.491 37.7066C335.936 36.9812 335.243 36.4159 334.411 36.0106C333.6 35.5839 332.683 35.3706 331.659 35.3706C330.571 35.3706 329.611 35.5946 328.779 36.0426C327.968 36.4692 327.285 37.0452 326.731 37.7706C326.176 38.4959 325.749 39.3066 325.451 40.2026C325.173 41.0986 325.035 42.0159 325.035 42.9546ZM364.646 54.3146V39.4026L358.822 50.5066H356.358L350.534 39.4026V54.3146H346.118V31.5946H350.854L357.574 44.5226L364.358 31.5946H369.062V54.3146H364.646ZM379.982 31.5946H384.462L392.814 54.3146H388.27L386.158 48.6506H378.222L376.141 54.3146H371.598L379.982 31.5946ZM385.358 45.5466L382.222 36.1706L378.958 45.5466H385.358ZM395.306 54.3146V31.5946H399.722V54.3146H395.306ZM408.878 39.7226V54.3146H404.462V31.5946H407.982L419.726 46.5706V31.6266H424.142V54.3146H420.462L408.878 39.7226ZM442.404 37.5466C442.255 37.3972 441.977 37.1946 441.572 36.9386C441.188 36.6826 440.708 36.4372 440.132 36.2026C439.577 35.9679 438.969 35.7652 438.308 35.5946C437.647 35.4026 436.975 35.3066 436.292 35.3066C435.097 35.3066 434.191 35.5306 433.572 35.9786C432.975 36.4266 432.676 37.0559 432.676 37.8666C432.676 38.4852 432.868 38.9759 433.252 39.3386C433.636 39.7012 434.212 40.0106 434.98 40.2666C435.748 40.5226 436.708 40.7999 437.86 41.0986C439.353 41.4612 440.644 41.9092 441.732 42.4426C442.841 42.9546 443.684 43.6372 444.26 44.4906C444.857 45.3226 445.156 46.4319 445.156 47.8186C445.156 49.0346 444.932 50.0799 444.484 50.9546C444.036 51.8079 443.417 52.5012 442.628 53.0346C441.839 53.5679 440.943 53.9626 439.94 54.2186C438.937 54.4532 437.871 54.5706 436.74 54.5706C435.609 54.5706 434.479 54.4532 433.348 54.2186C432.217 53.9839 431.129 53.6532 430.084 53.2266C429.039 52.7786 428.079 52.2452 427.204 51.6266L429.156 47.8186C429.348 48.0106 429.689 48.2666 430.18 48.5866C430.671 48.8852 431.268 49.1946 431.972 49.5146C432.676 49.8132 433.444 50.0692 434.276 50.2826C435.108 50.4959 435.951 50.6026 436.804 50.6026C437.999 50.6026 438.905 50.3999 439.524 49.9946C440.143 49.5892 440.452 49.0132 440.452 48.2666C440.452 47.5839 440.207 47.0506 439.716 46.6666C439.225 46.2826 438.543 45.9519 437.668 45.6746C436.793 45.3759 435.759 45.0559 434.564 44.7146C433.135 44.3092 431.94 43.8612 430.98 43.3706C430.02 42.8586 429.305 42.2186 428.836 41.4506C428.367 40.6826 428.132 39.7226 428.132 38.5706C428.132 37.0132 428.495 35.7119 429.22 34.6666C429.967 33.5999 430.969 32.7999 432.228 32.2666C433.487 31.7119 434.884 31.4346 436.42 31.4346C437.487 31.4346 438.489 31.5519 439.428 31.7866C440.388 32.0212 441.284 32.3306 442.116 32.7146C442.948 33.0986 443.695 33.5146 444.356 33.9626L442.404 37.5466Z" fill="#ACDFFF"/>
<defs>
<linearGradient id="paint0_linear_514_7265" x1="-0.000682972" y1="47.7555" x2="59.5823" y2="47.7555" gradientUnits="userSpaceOnUse">
<stop offset="0.197" stop-color="#662D91"/>
<stop offset="0.9532" stop-color="#0F9DFE"/>
</linearGradient>
<linearGradient id="paint1_linear_514_7265" x1="4.24829" y1="37.0743" x2="76.9975" y2="37.0743" gradientUnits="userSpaceOnUse">
<stop offset="0.197" stop-color="#662D91"/>
<stop offset="0.9532" stop-color="#0F9DFE"/>
</linearGradient>
<linearGradient id="paint2_linear_514_7265" x1="6.91184" y1="36.5791" x2="34.5718" y2="36.5791" gradientUnits="userSpaceOnUse">
<stop offset="0.197" stop-color="#662D91"/>
<stop offset="0.9532" stop-color="#0F9DFE"/>
</linearGradient>
<linearGradient id="paint3_linear_514_7265" x1="46.1454" y1="60.8678" x2="66.6235" y2="60.8678" gradientUnits="userSpaceOnUse">
<stop offset="0.197" stop-color="#662D91"/>
<stop offset="0.9532" stop-color="#0F9DFE"/>
</linearGradient>
</defs>
</svg>
