<svg width="38" height="37" viewBox="0 0 38 37" fill="none" xmlns="http://www.w3.org/2000/svg">
<path d="M19.1427 0.631836C8.882 0.631836 0.571289 8.80326 0.571289 18.8814C0.571289 26.946 5.892 33.7849 13.2695 36.1961C14.1981 36.3679 14.5385 35.803 14.5385 35.3186C14.5385 34.8853 14.5231 33.737 14.5153 32.2156C9.34938 33.316 8.25986 29.7673 8.25986 29.7673C7.41486 27.661 6.19379 27.0977 6.19379 27.0977C4.51153 25.9664 6.32379 25.9896 6.32379 25.9896C8.18867 26.1165 9.16831 27.8699 9.16831 27.8699C10.8243 30.6603 13.5156 29.854 14.5772 29.3881C14.7444 28.2073 15.2226 27.4041 15.7534 26.9475C11.629 26.491 7.29415 24.9217 7.29415 17.9296C7.29415 15.9378 8.01379 14.3097 9.20546 13.0329C8.99653 12.5717 8.36974 10.7161 9.36796 8.20279C9.36796 8.20279 10.9233 7.71374 14.4751 10.0739C15.9608 9.66838 17.5394 9.46719 19.118 9.45791C20.6965 9.46719 22.2751 9.66838 23.7608 10.0739C27.2894 7.71374 28.8447 8.20279 28.8447 8.20279C29.843 10.7161 29.2162 12.5717 29.0305 13.0329C30.2144 14.3097 30.934 15.9378 30.934 17.9296C30.934 24.9403 26.593 26.4833 22.4608 26.9321C23.1108 27.4799 23.7144 28.5989 23.7144 30.309C23.7144 32.7511 23.6912 34.7135 23.6912 35.3062C23.6912 35.7845 24.0162 36.3555 24.968 36.1729C32.3981 33.7772 37.7141 26.9336 37.7141 18.8814C37.7141 8.80326 29.3988 0.631836 19.1427 0.631836Z" fill="white"/>
</svg>
