<svg width="34" height="34" viewBox="0 0 34 34" fill="none" xmlns="http://www.w3.org/2000/svg">
<path d="M25.7976 8.91699H25.8128M9.54767 1.95312H25.0239C29.2975 1.95312 32.7619 5.41759 32.7619 9.69122V25.1674C32.7619 29.441 29.2975 32.9055 25.0239 32.9055H9.54767C5.27403 32.9055 1.80957 29.441 1.80957 25.1674V9.69122C1.80957 5.41759 5.27403 1.95312 9.54767 1.95312ZM23.4764 16.4543C23.6673 17.7423 23.4473 19.0577 22.8476 20.2135C22.2479 21.3693 21.2991 22.3065 20.136 22.8919C18.9729 23.4773 17.6549 23.6811 16.3694 23.4742C15.0838 23.2673 13.8962 22.6604 12.9755 21.7397C12.0548 20.819 11.4478 19.6314 11.241 18.3458C11.0341 17.0603 11.2379 15.7422 11.8233 14.5792C12.4087 13.4161 13.3459 12.4672 14.5017 11.8675C15.6574 11.2678 16.9729 11.0478 18.2609 11.2388C19.5747 11.4337 20.791 12.0459 21.7302 12.985C22.6693 13.9242 23.2815 15.1405 23.4764 16.4543Z" stroke="white" stroke-width="2" stroke-linecap="round" stroke-linejoin="round"/>
</svg>
