<svg width="38" height="31" viewBox="0 0 38 31" fill="none" xmlns="http://www.w3.org/2000/svg">
<path d="M34.322 4.1824L37.2857 1.34716V0.726562H27.0188L19.7016 18.9389L11.377 0.726562H0.611751V1.34716L4.07377 5.5149C4.41116 5.82287 4.58758 6.27323 4.5427 6.72668V23.1051C4.64949 23.6948 4.45758 24.3014 4.04282 24.7301L0.142822 29.4566V30.0694H11.2006V29.4488L7.30056 24.7301C6.87806 24.2999 6.67842 23.7041 6.76354 23.1051V8.93823L16.4702 30.0772H17.5984L25.9447 8.93823V25.7779C25.9447 26.222 25.9447 26.3134 25.6538 26.6043L22.6514 29.5092V30.1313H37.2176V29.5107L34.3235 26.677C34.0697 26.4851 33.9382 26.1632 33.9923 25.8506V5.00882C33.9382 4.69466 34.0682 4.37275 34.322 4.1824Z" fill="white"/>
</svg>
