<svg width="38" height="37" viewBox="0 0 38 37" fill="none" xmlns="http://www.w3.org/2000/svg">
<path d="M33.0029 14.2633C31.8298 14.2633 30.7976 14.757 30.0377 15.5261C27.2442 13.5637 23.4773 12.3009 19.3034 12.1662L21.4716 2.25219L28.3755 3.82457C28.3755 5.53934 29.7529 6.93993 31.4429 6.93993C33.1654 6.93993 34.5505 5.50219 34.5505 3.78588C34.5505 2.06957 33.1747 0.631836 31.4445 0.631836C30.2389 0.631836 29.1989 1.37005 28.6804 2.3791L21.0553 0.664336C20.6715 0.560645 20.2954 0.839217 20.1933 1.22922L17.813 12.1585C13.6716 12.3334 9.94494 13.5947 7.1422 15.5586C6.38232 14.757 5.30982 14.2633 4.13673 14.2633C-0.215177 14.2633 -1.64053 20.1891 2.34458 22.2149C2.20375 22.8417 2.1403 23.5103 2.1403 24.1773C2.1403 30.8336 9.53018 36.2271 18.6039 36.2271C27.7163 36.2271 35.1061 30.8336 35.1061 24.1773C35.1061 23.5103 35.0365 22.8108 34.8647 22.1824C38.7693 20.1489 37.3316 14.2664 33.0029 14.2633ZM8.66816 22.6359C8.66816 20.8886 10.0455 19.4818 11.7758 19.4818C13.4658 19.4818 14.8447 20.8793 14.8447 22.6359C14.8447 24.3522 13.4673 25.7512 11.7758 25.7512C10.0533 25.759 8.66816 24.3522 8.66816 22.6359ZM25.4428 30.0614C22.5936 32.9523 14.5538 32.9523 11.703 30.0614C11.3889 29.7828 11.3889 29.2906 11.703 28.9734C11.977 28.6948 12.4629 28.6948 12.7368 28.9734C14.9128 31.2376 22.1309 31.2762 24.4013 28.9734C24.6752 28.6948 25.1611 28.6948 25.4351 28.9734C25.7554 29.2922 25.7554 29.7843 25.4428 30.0614ZM25.3793 25.7574C23.6893 25.7574 22.312 24.3599 22.312 22.6452C22.312 20.8979 23.6893 19.4911 25.3793 19.4911C27.1018 19.4911 28.487 20.8886 28.487 22.6452C28.4792 24.3522 27.1018 25.7574 25.3793 25.7574Z" fill="white"/>
</svg>
