<svg width="35" height="29" viewBox="0 0 35 29" fill="none" xmlns="http://www.w3.org/2000/svg">
<path d="M34.4524 0.499937C32.9704 1.54532 31.3295 2.34487 29.5929 2.86779C28.6608 1.79609 27.4221 1.03648 26.0442 0.691728C24.6664 0.346971 23.2159 0.433693 21.889 0.940163C20.562 1.44663 19.4226 2.34842 18.6249 3.52355C17.8271 4.69868 17.4096 6.09046 17.4286 7.51065V9.05827C14.7089 9.12879 12.0139 8.5256 9.58373 7.30241C7.15355 6.07923 5.06361 4.27402 3.50002 2.04756C3.50002 2.04756 -2.69045 15.9761 11.2381 22.1666C8.05084 24.3301 4.25396 25.4149 0.404785 25.2618C14.3334 32.9999 31.3572 25.2618 31.3572 7.46422C31.3557 7.03314 31.3143 6.60312 31.2334 6.1797C32.8129 4.62201 33.9275 2.65533 34.4524 0.499937Z" fill="white"/>
</svg>
