<svg xmlns="http://www.w3.org/2000/svg" xmlns:xlink="http://www.w3.org/1999/xlink" viewBox="0 0 117.99 118.48"><defs><linearGradient id="a" x1="3.46" y1="57.26" x2="117.99" y2="57.26" gradientUnits="userSpaceOnUse"><stop offset="0" stop-color="#db9125"/><stop offset="0.04" stop-color="#e2a536"/><stop offset="0.11" stop-color="#efc952"/><stop offset="0.18" stop-color="#f8e267"/><stop offset="0.25" stop-color="#fdf274"/><stop offset="0.3" stop-color="#fff778"/><stop offset="0.42" stop-color="#eac34a"/><stop offset="0.51" stop-color="#d99a26"/><stop offset="0.54" stop-color="#c78c23"/><stop offset="0.59" stop-color="#b57d20"/><stop offset="0.65" stop-color="#ab741f"/><stop offset="0.71" stop-color="#a7711e"/><stop offset="0.75" stop-color="#af781f"/><stop offset="0.81" stop-color="#c68b23"/><stop offset="0.85" stop-color="#d99a26"/><stop offset="1" stop-color="#f6ce69"/></linearGradient><linearGradient id="b" x1="57.26" y1="118.48" x2="57.26" y2="3.95" xlink:href="#a"/></defs><title>Asset 1</title><path d="M60.73,114.53A57.27,57.27,0,1,1,118,57.26,57.33,57.33,0,0,1,60.73,114.53ZM60.73.75a56.52,56.52,0,1,0,56.51,56.51A56.58,56.58,0,0,0,60.73.75Z" fill="url(#a)"/><path d="M57.26,118.48a57.27,57.27,0,1,1,57.27-57.27A57.33,57.33,0,0,1,57.26,118.48Zm0-113.78a56.52,56.52,0,1,0,56.52,56.51A56.57,56.57,0,0,0,57.26,4.7Z" fill="url(#b)"/></svg>