<svg xmlns="http://www.w3.org/2000/svg" xmlns:xlink="http://www.w3.org/1999/xlink" viewBox="0 0 129.76 128.86"><defs><linearGradient id="a" y1="64.43" x2="129.76" y2="64.43" gradientUnits="userSpaceOnUse"><stop offset="0" stop-color="#db9125"/><stop offset="0.04" stop-color="#e2a536"/><stop offset="0.11" stop-color="#efc952"/><stop offset="0.18" stop-color="#f8e267"/><stop offset="0.25" stop-color="#fdf274"/><stop offset="0.3" stop-color="#fff778"/><stop offset="0.42" stop-color="#eac34a"/><stop offset="0.51" stop-color="#d99a26"/><stop offset="0.54" stop-color="#c78c23"/><stop offset="0.59" stop-color="#b57d20"/><stop offset="0.65" stop-color="#ab741f"/><stop offset="0.71" stop-color="#a7711e"/><stop offset="0.75" stop-color="#af781f"/><stop offset="0.81" stop-color="#c68b23"/><stop offset="0.85" stop-color="#d99a26"/><stop offset="1" stop-color="#f6ce69"/></linearGradient></defs><title>Asset 2</title><path d="M58.85,128.86l-11.3-7.44-15.09,1.7-9.73-18L1.88,91.38,4.7,71.7,0,63l7.33-9.57,2.89-20.2L48,.19,48.19,0l.22.08L97.33,7.75l10.08,14.49,16.37,6.15-2.84,13.3,8.82,12.68L105.2,115l-.19,0Zm-10.14-7.57L59,128l41.89-12.61ZM24.05,106l8.83,16.35,13.69-1.54Zm-.75-1.4,24.43,16.08,56.9-6.39,15.5-72.41-13.2-19L48.45.9,8,53.71,5.48,71.56Zm97.42-61.88L106.2,110.48l22.71-56ZM2.69,91,22,103.7,5.3,72.8Zm-1.8-28,4,7.4L7.11,54.93Zm10-29.45L8.26,52.19l37.49-49Zm97.24-10.27,12.19,17.52,2.57-12ZM51.88,1.39l54.29,20.39L96.9,8.44Z" fill="url(#a)"/></svg>