<svg xmlns="http://www.w3.org/2000/svg" xmlns:xlink="http://www.w3.org/1999/xlink" viewBox="0 0 126.05 127.93"><defs><linearGradient id="a" y1="63.96" x2="126.05" y2="63.96" gradientUnits="userSpaceOnUse"><stop offset="0" stop-color="#db9125"/><stop offset="0.04" stop-color="#e2a536"/><stop offset="0.11" stop-color="#efc952"/><stop offset="0.18" stop-color="#f8e267"/><stop offset="0.25" stop-color="#fdf274"/><stop offset="0.3" stop-color="#fff778"/><stop offset="0.42" stop-color="#eac34a"/><stop offset="0.51" stop-color="#d99a26"/><stop offset="0.54" stop-color="#c78c23"/><stop offset="0.59" stop-color="#b57d20"/><stop offset="0.65" stop-color="#ab741f"/><stop offset="0.71" stop-color="#a7711e"/><stop offset="0.75" stop-color="#af781f"/><stop offset="0.81" stop-color="#c68b23"/><stop offset="0.85" stop-color="#d99a26"/><stop offset="1" stop-color="#f6ce69"/></linearGradient></defs><title>Asset 4</title><path d="M118.92,127.93,55,122.46,0,125.34,4.8,63.79.38,7.13l8.86-.29L9.78,0,61.05,5.11l58.2-1.93.31,7.77,6.49.65L122.11,76l1.68,42.91-4.33.23Zm-58.44-5.75,57.74,4.94.49-8ZM5.18,68.61.81,124.55,49.58,122,9.07,118.53Zm4.59,49.23L55,121.71l63.71-3.34,2.6-42.43-2.52-64.31L61,5.87,9.94,7.56,5.55,63.79ZM121.65,83.42l-2.14,34.92,3.5-.19Zm-2.06-71.71,2.22,56.77,3.45-56.21ZM1.19,7.86,5.18,59l4-51.38Zm65.5-2.18,52.11,5.2L118.53,4ZM10.47.82l-.47,6L55.38,5.3Z" fill="url(#a)"/></svg>